# xmcd
#
# Track frame offsets: 
#        150
#        15255
#        25867
#        35730
#        45967
#        56740
#        66997
#        81067
#        91947
#        105527
#        117385
#        129240
#        140425
#        150527
#        162470
#        176250
#        185205
#        197142
#        210442
#        221890
#
# Disc length: 3127 seconds
#
# Revision: 3
# Processed by: cddbd v1.5.2PL0 Copyright (c) Steve Scherf et al.
# Submitted via: ExactAudioCopy v1.1
#
DISCID=120c3514
DTITLE=Slim Whitman - Slim Whitman ('Best Now' Japan issue)
DYEAR=1988
DGENRE=Country
TTITLE0=Indian Love Call
TTITLE1=North Wind
TTITLE2=The Cattle Call
TTITLE3=It's A Sin To Tell A Lie
TTITLE4=Beautiful Dreamer
TTITLE5=Mexicali Rose
TTITLE6=You Are My Sunshine
TTITLE7=Rose Marie
TTITLE8=I'll Take You Home Again, Kathleen
TTITLE9=When It's Springtime In The Rockies'
TTITLE10=When I Grow Too Old To Dream
TTITLE11=Tennessee Waltz
TTITLE12=I Can't Stop Loving You
TTITLE13=Love Song Of The Waterfall
TTITLE14=Lovesick Blues
TTITLE15=Rambling Rose
TTITLE16=Secret Love
TTITLE17=Blue Eyes Crying In The Rain
TTITLE18=I'm Casting My Lasso Towards The Sky
TTITLE19=By The Waters Of Minnetonka
EXTD=YEAR: 1999
EXTT0=
EXTT1=
EXTT2=
EXTT3=
EXTT4=
EXTT5=
EXTT6=
EXTT7=
EXTT8=
EXTT9=
EXTT10=
EXTT11=
EXTT12=
EXTT13=
EXTT14=
EXTT15=
EXTT16=
EXTT17=
EXTT18=
EXTT19=
PLAYORDER=
